<svg xmlns="http://www.w3.org/2000/svg" viewBox="0 0 64 80" x="0px" y="0px"><title>09-bird</title><g data-name="09-bird"><path d="M18.937,34C10.073,34,2,28.439,2,22.333a7.749,7.749,0,0,1,2.726-6.609A7.9,7.9,0,0,1,4,12C4,5.242,12.03,0,18.937,0,30.874,0,38,7.551,38,20.2,38,28.5,26.526,34,18.937,34Zm0-32C13.078,2,6,6.46,6,12a5.881,5.881,0,0,0,.867,3.5,1,1,0,0,1-.287,1.314C4.194,18.511,4,20.317,4,22.333,4,26.8,10.525,32,18.937,32,25.808,32,36,27.045,36,20.2,36,8.634,29.781,2,18.937,2Z"/><path d="M35.372,10.928l-.744-1.856,3.121-1.249L33.583,5.909a1,1,0,0,1,.006-1.821l4.605-2.075L20,2V0H38.234a1.978,1.978,0,0,1,1.933,1.487,1.976,1.976,0,0,1-.94,2.249L36.412,5.008l2.277,1.046a1,1,0,0,1,.1.051A2,2,0,0,1,38.5,9.677Z"/><path d="M16,26a7.008,7.008,0,0,1-7-7c0-3.589,2.813-6,7-6s7,2.411,7,6a6.006,6.006,0,0,1-6,6A1,1,0,0,1,16,26Zm0-11c-2.417,0-5,1.051-5,4a5.008,5.008,0,0,0,4.1,4.919C15.619,21.175,18.005,19,20,19v2a3.541,3.541,0,0,0-2.466,1.964A4,4,0,0,0,21,19C21,16.051,18.417,15,16,15Z"/><path d="M22.4,16a1.383,1.383,0,0,1-1-.4A1.51,1.51,0,0,1,21.1,14,3.234,3.234,0,0,1,23,12.1,1.436,1.436,0,0,1,24.9,14a3.021,3.021,0,0,1-.742,1.154h0A3.021,3.021,0,0,1,23,15.9,1.921,1.921,0,0,1,22.4,16Z"/><path d="M10.605,16A1.927,1.927,0,0,1,10,15.9a3.021,3.021,0,0,1-1.154-.742h0A3.021,3.021,0,0,1,8.1,14,1.436,1.436,0,0,1,10,12.1,3.234,3.234,0,0,1,11.9,14a1.51,1.51,0,0,1-.3,1.6A1.377,1.377,0,0,1,10.605,16Z"/><path d="M40,53c-7.889,0-14.008-7.526-14.008-14h2c0,5.435,5.357,12,12.008,12,7.438,0,13.3-7.688,13.917-14.779-2.605.409-8.608.868-13.491-2.389a37.572,37.572,0,0,1-4.088-3.272,12.184,12.184,0,0,0-3.627-2.6l.578-1.914a13.142,13.142,0,0,1,4.374,3.019,35.756,35.756,0,0,0,3.874,3.106c5.544,3.7,13.116,1.88,13.192,1.862a1,1,0,0,1,1.242.97C55.971,43.5,49.141,53,40,53Z"/><path d="M43.809,34.588l-1.618-1.176L49,24.049A4.993,4.993,0,0,1,53.024,22C54.588,22,57,23.288,57,25H55a.135.135,0,0,0,0,.024A2.68,2.68,0,0,0,53.024,24a2.983,2.983,0,0,0-2.406,1.226Z"/><path d="M32.988,62C27.474,62,16,62,16,55h2c0,4.406,7.577,5,14.988,5,22.785,0,24.223-10.913,26.835-30.723L60,27.934V26c0-1.271-.573-2-1.573-2a1.539,1.539,0,0,0-1.327.763L50.883,36.469l-1.766-.938,6.235-11.74A3.561,3.561,0,0,1,58.427,22C60.206,22,62,23.237,62,26v2a.95.95,0,0,1-.009.131l-.185,1.407C59.137,49.781,57.527,62,32.988,62Z"/><path d="M19,62a.927.927,0,0,1-.182-.017C18.65,61.952,2,58.727,2,46c0-8.5,4.928-13.37,7.3-15.71L10.7,31.712C8.36,34.027,4,38.335,4,46,4,56.625,17.872,59.746,19.1,60a7.513,7.513,0,0,0,3.1-.483A.653.653,0,0,0,22,60h2C24,61.74,20.867,62,19,62Z"/><rect x="28.382" y="61" width="2.236" height="2" transform="translate(-39.147 60.658) rotate(-63.435)"/><rect x="31.382" y="61" width="2.236" height="2" transform="translate(-37.489 63.342) rotate(-63.435)"/><rect x="34.382" y="61" width="2.236" height="2" transform="translate(-35.831 66.025) rotate(-63.435)"/><rect x="9.439" y="60.4" width="5.123" height="2" transform="translate(-35.724 20.947) rotate(-38.655)"/><rect x="12.625" y="60.875" width="3.75" height="2.001" transform="translate(-34.221 21.07) rotate(-36.864)"/><rect x="15.697" y="61" width="3.606" height="2" transform="translate(-31.452 20.12) rotate(-33.69)"/><path d="M41,47c-4.962,0-9-3.589-9-8h2c0,3.309,3.14,6,7,6,7.168,0,13-4.486,13-10h2C56,41.617,49.271,47,41,47Z"/></g><text x="0" y="79" fill="#000000" font-size="5px" font-weight="bold" font-family="'Helvetica Neue', Helvetica, Arial-Unicode, Arial, Sans-serif">Created by Justicon</text><text x="0" y="84" fill="#000000" font-size="5px" font-weight="bold" font-family="'Helvetica Neue', Helvetica, Arial-Unicode, Arial, Sans-serif">from the Noun Project</text></svg>