<svg xmlns="http://www.w3.org/2000/svg" xmlns:xlink="http://www.w3.org/1999/xlink" version="1.1" x="0px" y="0px" viewBox="0 0 100 125" style="enable-background:new 0 0 100 100;" xml:space="preserve"><g><path d="M71.786,74.972c-3.251-0.782-6.428-2.438-9.667-4.212l-0.332-0.182c-1.761-0.965-3.45-1.89-5.131-2.77   c-0.635-0.335-1.421-0.089-1.755,0.548c-0.333,0.637-0.087,1.422,0.549,1.755c1.667,0.873,3.341,1.791,5.088,2.747l0.333,0.183   c3.264,1.786,6.749,3.603,10.307,4.458c0.103,0.024,0.205,0.037,0.305,0.037c0.587,0,1.12-0.401,1.263-0.997   C72.913,75.841,72.483,75.14,71.786,74.972z"/><path d="M73.869,76.702c-0.018,0.718,0.549,1.313,1.267,1.332c0.146,0.004,0.291,0.005,0.436,0.005   c2.613,0,5.163-0.593,7.778-1.807c0.651-0.302,0.934-1.075,0.632-1.726c-0.303-0.651-1.075-0.938-1.727-0.632   c-2.389,1.108-4.689,1.617-7.053,1.56C74.479,75.437,73.887,75.985,73.869,76.702z"/><path d="M16.222,34.743c-0.337-0.635-1.124-0.88-1.758-0.54c-0.634,0.336-0.876,1.123-0.54,1.757   c0.763,1.441,2.127,2.384,3.638,2.563c0.698,1.516,2.213,2.543,3.943,2.543c1.731,0,3.246-1.028,3.944-2.544   c1.51-0.18,2.873-1.123,3.636-2.563c0.336-0.634,0.094-1.421-0.54-1.757c-0.635-0.34-1.421-0.095-1.758,0.54   c-0.404,0.763-1.099,1.218-1.86,1.218c-0.968,0-1.782-0.747-2.068-1.77c0.49-0.186,0.842-0.652,0.842-1.207   c0-0.718-0.582-1.3-1.3-1.3h-0.598h-0.598h-0.598c-0.718,0-1.3,0.582-1.3,1.3c0,0.555,0.352,1.021,0.842,1.207   c-0.286,1.024-1.1,1.77-2.068,1.77C17.321,35.961,16.625,35.506,16.222,34.743z M21.504,36.994   c0.354,0.392,0.773,0.708,1.227,0.964c-0.32,0.314-0.752,0.509-1.226,0.509c-0.475,0-0.907-0.195-1.227-0.51   C20.732,37.702,21.15,37.386,21.504,36.994z"/><path d="M15.725,31.021h1.783c0.403,0,0.73-0.327,0.73-0.73v-0.45c0-1.296-1.05-2.346-2.346-2.346h-1.783   c-0.403,0-0.73,0.327-0.73,0.73v0.45C13.379,29.971,14.429,31.021,15.725,31.021z"/><path d="M25.501,31.021h1.783c1.296,0,2.346-1.05,2.346-2.346v-0.45c0-0.403-0.327-0.73-0.73-0.73h-1.783   c-1.296,0-2.346,1.05-2.346,2.346v0.45C24.771,30.695,25.098,31.021,25.501,31.021z"/><path d="M6.384,23.463c0.247,0.637,0.324,1.075,0.314,1.244c-0.219,3.364-0.439,5.027-0.585,6.128   c-0.143,1.074-0.221,1.667-0.096,2.64c0.683,5.161,5.187,8.204,5.695,8.532c2.077,1.351,3.977,1.936,5.622,2.28   c0.781,3.398,1.966,6.681,3.58,9.762c1.399,2.673,3.374,5.448,4.956,7.422c-1.763,1.191-3.253,2.872-4.049,5.137   c-1.536,4.37-0.654,8.944,2.551,13.228c4.28,5.729,11.106,6.965,17.389,6.964c1.293,0,2.564-0.052,3.785-0.128   c3.319-0.208,6.747-0.294,10.062-0.377c10.5-0.265,21.357-0.538,31.302-4.613c9.517-3.9,8.779-18.904,6.981-25.148   c-1.382-4.836-7.343-20.242-16.304-27.354c-13.106-10.402-29.926-8.964-38.008-8.272c-0.852,0.072-1.59,0.131-2.206,0.168   c0.263-1.002,0.465-1.999,0.555-2.97c0.21-2.301,0.037-3.516-0.592-4.187c-0.302-0.329-0.867-0.721-1.836-0.721   c-1.23,0-2.747,0.625-4.059,1.205c-1.479,0.637-2.859,1.525-4.112,2.646c-0.633-0.208-1.473-0.448-2.496-0.668   c-1.104-0.238-2.239-0.35-3.374-0.345c-0.005,0-0.01-0.003-0.015-0.003c-0.009,0-0.017,0.005-0.026,0.005   c-1.072,0.008-2.143,0.118-3.187,0.341c-0.893,0.188-1.773,0.421-2.549,0.671c-1.238-1.116-2.615-2.007-4.103-2.653   c-1.392-0.607-2.853-1.199-4.063-1.199c-0.971,0-1.535,0.392-1.83,0.712c-0.637,0.68-0.811,1.895-0.601,4.193   C5.238,19.824,5.663,21.575,6.384,23.463z M36.893,30.807c-0.145-1.102-0.364-2.767-0.58-6.085   c-0.009-0.157,0.053-0.509,0.226-1.009c0.805-0.007,1.861-0.096,3.26-0.215c7.749-0.664,23.872-2.042,36.17,7.719   C84.396,37.903,90.067,52.62,91.39,57.25c1.776,6.171,1.996,18.967-5.468,22.025c-9.502,3.895-20.116,4.161-30.381,4.42   c-3.339,0.084-6.792,0.171-10.159,0.381c-6.895,0.432-14.539,0.08-18.929-5.798c-2.7-3.607-3.433-7.244-2.18-10.808   c1.574-4.476,6.981-6.031,10.14-5.67c3.815,0.434,5.338,1.187,7.266,2.14c0.98,0.484,2.091,1.034,3.601,1.582   c2.095,0.762,4.188,1.643,6.396,2.693c0.648,0.308,1.424,0.032,1.732-0.615c0.309-0.648,0.033-1.424-0.615-1.732   c-1.785-0.849-3.498-1.589-5.2-2.25c-0.135-1.36-0.242-3.386-0.115-5.991c0.053-1.024,0.223-2.06,0.505-3.089   c0.001-0.003,0.003-0.005,0.004-0.008c0.723-2.666,3.123-6.559,7.505-8.757c3.999-2.006,8.721-2.036,13.655-0.091   c0.667,0.265,1.422-0.064,1.687-0.731c0.263-0.668-0.064-1.423-0.732-1.687c-7.126-2.813-12.512-1.452-15.775,0.185   c-4.758,2.386-7.518,6.51-8.595,9.636c-0.056,0.099-0.104,0.204-0.133,0.32l-0.122,0.441c-0.331,1.203-0.531,2.43-0.595,3.65   c-0.099,2.034-0.063,3.738,0.021,5.081c-0.768-0.327-1.432-0.651-2.071-0.967c-1.831-0.905-3.594-1.76-7.206-2.268l-0.334-0.476   c-0.821-1.166-1.67-2.371-1.934-3.679c-0.143-0.704-0.832-1.162-1.531-1.018c-0.704,0.142-1.16,0.828-1.018,1.531   c0.268,1.329,0.892,2.475,1.567,3.508c-1.339,0.118-2.779,0.448-4.17,1.019c-1.627-1.985-3.662-4.847-4.989-7.385   c-1.361-2.599-2.4-5.35-3.131-8.196c0.247,0.01,0.501,0.015,0.769,0.015c0.216,0,0.444-0.004,0.615-0.01   c0.241,0.006,0.468,0.01,0.685,0.01c1.029,0,1.858-0.069,2.778-0.23c1.679-0.301,3.678-0.803,5.882-2.131   c0.005,0.045,0.009,0.087,0.014,0.134c0.022,0.2,0.048,0.428,0.071,0.704c0.021,0.251,0.015,0.5-0.017,0.736   c-0.838,6.145-0.828,7.722-0.748,8.374c0.081,0.658,0.641,1.141,1.289,1.141c0.053,0,0.106-0.003,0.16-0.01   c0.713-0.088,1.219-0.736,1.131-1.449c-0.043-0.355-0.059-1.818,0.744-7.706c0.057-0.426,0.067-0.864,0.031-1.303   c-0.025-0.306-0.054-0.557-0.078-0.776c-0.08-0.716-0.102-0.908,0.144-1.778c0.026-0.091,0.015-0.181,0.02-0.272   c1.417-1.455,3.026-3.694,3.407-6.61C37.116,32.503,37.037,31.9,36.893,30.807z M7.635,15.802c0.794,0.059,2.155,0.651,2.904,0.979   c1.438,0.625,2.755,1.53,3.914,2.688c0.325,0.325,0.825,0.408,1.272,0.296v1.37c0,0.718,0.582,1.3,1.3,1.3s1.3-0.582,1.3-1.3   v-2.112c0.148-0.034,0.295-0.07,0.445-0.101c0.453-0.097,0.911-0.17,1.372-0.219v4.45c0,0.718,0.582,1.3,1.3,1.3s1.3-0.582,1.3-1.3   v-4.459c0.519,0.048,1.035,0.118,1.543,0.227c0.1,0.021,0.198,0.046,0.297,0.069v2.145c0,0.718,0.582,1.3,1.3,1.3   s1.3-0.582,1.3-1.3v-1.387c0.474,0.179,1.008,0.075,1.37-0.283c1.176-1.162,2.494-2.062,3.928-2.68   c0.689-0.305,2.087-0.923,2.897-0.983c0.039,0.307,0.066,0.921-0.038,2.063c-0.097,1.038-0.304,2.072-0.637,3.178   c-0.131,0.457-0.295,0.944-0.498,1.479c-0.356,0.918-0.52,1.705-0.485,2.354c0.223,3.419,0.457,5.204,0.597,6.271   c0.137,1.041,0.178,1.354,0.092,1.999c-0.531,4.061-4.481,6.654-4.525,6.683c-1.622,1.055-3.188,1.646-5.404,2.045   c-0.758,0.133-1.453,0.189-2.323,0.189c-0.194,0-0.399-0.003-0.685-0.009c-1.185,0.032-2.012-0.019-2.934-0.18   c-2.22-0.399-3.787-0.992-5.412-2.048c-0.04-0.026-3.992-2.62-4.53-6.688c-0.081-0.631-0.037-0.966,0.095-1.961   c0.142-1.065,0.378-2.85,0.604-6.316c0.034-0.634-0.13-1.421-0.484-2.332c-0.632-1.655-1.004-3.179-1.137-4.66   C7.568,16.723,7.597,16.108,7.635,15.802z"/><path d="M10.504,21.663c0.108,0.26,0.431,0.349,0.658,0.181l1.573-1.169c0.215-0.16,0.237-0.473,0.044-0.658   c-0.555-0.531-1.462-1.179-1.883-1.361c-0.365-0.159-1.005-0.437-1.209-0.216c-0.107,0.114-0.104,0.492-0.07,0.871   C9.651,19.677,10.164,20.841,10.504,21.663z"/><path d="M31.841,21.843c0.226,0.168,0.55,0.08,0.658-0.181c0.34-0.821,0.853-1.986,0.886-2.352c0.035-0.38,0.037-0.757-0.07-0.871   c-0.204-0.221-0.844,0.057-1.209,0.216c-0.42,0.183-1.328,0.83-1.883,1.361c-0.193,0.185-0.171,0.498,0.044,0.658L31.841,21.843z"/><path d="M62.242,50.781c0.407,0,0.809-0.19,1.062-0.549c0.357-0.505,0.713-0.986,1.062-1.442c0.436-0.57,0.327-1.387-0.243-1.823   c-0.572-0.436-1.387-0.327-1.822,0.243c-0.368,0.481-0.742,0.988-1.119,1.521c-0.415,0.586-0.276,1.397,0.31,1.812   C61.72,50.704,61.982,50.781,62.242,50.781z"/><path d="M55.883,61.887c0.148,0.055,0.301,0.081,0.451,0.081c0.528,0,1.025-0.325,1.219-0.85c0.935-2.527,2.102-4.998,3.469-7.342   c0.362-0.62,0.152-1.417-0.468-1.778c-0.62-0.36-1.416-0.152-1.778,0.468c-1.443,2.475-2.675,5.082-3.662,7.75   C54.865,60.89,55.209,61.638,55.883,61.887z"/><path d="M65.589,59.245c0.2,0.11,0.416,0.163,0.63,0.163c0.457,0,0.9-0.241,1.138-0.669c0.86-1.549,1.823-3.074,2.862-4.533   c0.417-0.584,0.28-1.396-0.305-1.813c-0.584-0.417-1.396-0.28-1.813,0.305c-1.095,1.537-2.11,3.146-3.018,4.779   C64.735,58.105,64.961,58.896,65.589,59.245z"/><path d="M64.937,60.545c-0.655-0.296-1.424-0.003-1.719,0.652c-0.456,1.014-0.884,2.06-1.272,3.108   c-0.249,0.673,0.095,1.421,0.768,1.67c0.149,0.056,0.301,0.082,0.451,0.082c0.528,0,1.025-0.325,1.219-0.85   c0.368-0.994,0.773-1.984,1.205-2.944C65.883,61.609,65.591,60.84,64.937,60.545z"/><path d="M71.646,63.116c0.203,0.115,0.424,0.17,0.642,0.17c0.452,0,0.891-0.235,1.131-0.656c0.705-1.238,1.48-2.468,2.305-3.654   c0.41-0.59,0.264-1.399-0.325-1.81c-0.59-0.408-1.4-0.264-1.81,0.325c-0.869,1.25-1.687,2.547-2.43,3.852   C70.804,61.967,71.022,62.761,71.646,63.116z"/><path d="M69.163,65.243c-0.235,0.514-0.465,1.04-0.689,1.578c-0.276,0.663,0.038,1.424,0.701,1.7   c0.163,0.068,0.333,0.101,0.499,0.101c0.509,0,0.993-0.302,1.201-0.801c0.212-0.511,0.431-1.01,0.653-1.498   c0.299-0.652,0.011-1.424-0.642-1.723C70.23,64.302,69.461,64.589,69.163,65.243z"/><path d="M41.424,28.796c0.039,0,0.077-0.001,0.116-0.005c0.126-0.011,0.339-0.04,0.63-0.08c1.481-0.205,5.413-0.747,10.351-0.305   c0.714,0.055,1.347-0.463,1.411-1.179c0.064-0.715-0.463-1.347-1.179-1.411c-5.229-0.47-9.377,0.104-10.939,0.319   c-0.233,0.032-0.402,0.057-0.503,0.065c-0.715,0.063-1.244,0.694-1.18,1.409C40.19,28.287,40.758,28.796,41.424,28.796z"/><path d="M56.25,28.917c0.838,0.156,1.659,0.337,2.44,0.537c0.108,0.027,0.216,0.041,0.323,0.041c0.58,0,1.108-0.391,1.258-0.979   c0.178-0.695-0.241-1.403-0.937-1.582c-0.837-0.214-1.714-0.407-2.607-0.574c-0.71-0.126-1.384,0.335-1.517,1.04   C55.079,28.105,55.544,28.785,56.25,28.917z"/></g><text x="0" y="115" fill="#000000" font-size="5px" font-weight="bold" font-family="'Helvetica Neue', Helvetica, Arial-Unicode, Arial, Sans-serif">Created by Maxim Kulikov</text><text x="0" y="120" fill="#000000" font-size="5px" font-weight="bold" font-family="'Helvetica Neue', Helvetica, Arial-Unicode, Arial, Sans-serif">from the Noun Project</text></svg>