<svg xmlns="http://www.w3.org/2000/svg" data-name="Layer 1" viewBox="0 0 100 125" x="0px" y="0px"><title>50Icon_5px_grid2</title><path d="M79.46,54.51a1.54,1.54,0,0,0-1.49-1c-1.17.06-1.63,1.25-2,2.56-1.58,5.16-7.55,9.82-9.88,11.48-.88-2.34-1.87-4.49-2.78-6.34a1,1,0,0,0-.19-.24,100.19,100.19,0,0,0-3.51-13.38c.15-.17.3-.34.42-.5l8.8-11.64a10.75,10.75,0,0,0,1.89-5.66L70.64,9.5a2.92,2.92,0,0,0-1.4-2.69,2.92,2.92,0,0,0-3,.29l-8.89,5.74a6,6,0,0,1-3.8.68,40.3,40.3,0,0,0-7.09-.92,40.3,40.3,0,0,0-7.09.92,6.08,6.08,0,0,1-3.81-.68l-9-5.76a2.92,2.92,0,0,0-3-.28,2.92,2.92,0,0,0-1.38,2.7l0,20.31a10.35,10.35,0,0,0,2,5.64L33.47,47a98.47,98.47,0,0,0-3.75,14,1,1,0,0,0-.16.21c-1.92,3.9-4.22,9.1-5,14.68a64.74,64.74,0,0,0-.06,7.65c-3,.82-4.37,3-4.08,4.84s1.92,3.37,4.94,3.37a9.59,9.59,0,0,0,1.46-.12h0a7.63,7.63,0,0,0,4.46,1.51l1.11.12a23,23,0,0,0,2.68.21,6.43,6.43,0,0,0,4.62-1.59c1.73-1.63,1.92-3.84,1.84-5.86a18.13,18.13,0,0,0,4.72,1h.25a18.12,18.12,0,0,0,4.72-1c-.08,2,.11,4.23,1.84,5.86a6.43,6.43,0,0,0,4.62,1.59,23,23,0,0,0,2.68-.21l1.11-.12A7.63,7.63,0,0,0,66,91.65h0a9.6,9.6,0,0,0,1.46.12c3,0,4.67-1.64,4.94-3.37s-1-4-4.08-4.84a41.15,41.15,0,0,0,.08-4.46,1.35,1.35,0,0,0,.27-.17C77.78,70.45,80.3,56.5,79.46,54.51Zm-4,8.2a35,35,0,0,1-7.23,12.74A36.23,36.23,0,0,0,67,70.34,39.53,39.53,0,0,0,75.41,62.71ZM40,51.6l1.63.24v3a26.42,26.42,0,0,1-7-2.11,1.16,1.16,0,0,0-.42-.1c.4-1.38.77-2.57,1.08-3.5A9.36,9.36,0,0,0,40,51.6Zm4,.59,1.53.23a10.55,10.55,0,0,0,1.52.1,16.3,16.3,0,0,0,1.88-.12V55a28.28,28.28,0,0,1-4.94.1Zm7.28-.27.09,0,3.86-1.31a10.34,10.34,0,0,0,2.48-1.32c.28.86.62,1.93,1,3.14a1.13,1.13,0,0,0-.34.07,33.14,33.14,0,0,1-7.07,2.17ZM25,29.81l0-20.31s0-.07,0-.1l.09.05,9,5.76A8.71,8.71,0,0,0,40,16.26a38.24,38.24,0,0,1,6.49-.86,38.21,38.21,0,0,1,6.49.86,8.69,8.69,0,0,0,5.93-1.06l8.88-5.74.09-.05s0,.07,0,.1l.05,20.31a7.9,7.9,0,0,1-1.32,4l-8.8,11.64a8.85,8.85,0,0,1-3.48,2.51l-3.86,1.31a12,12,0,0,1-4.53.41l-5.5-.81a6.6,6.6,0,0,1-3.44-2L26.37,33.7A7.5,7.5,0,0,1,25,29.81Zm.89,59.84c-2,.14-3.23-.63-3.38-1.56s.93-2.28,3.31-2.65h0a1,1,0,0,0,.87-1.2,1,1,0,0,0-.08-.27,75.87,75.87,0,0,1,0-7.76,37,37,0,0,1,2.11-7.93A32.93,32.93,0,0,0,29.71,80c.55,1.73.64,3.49.36,3.79C28.95,84.31,25.69,87,25.88,89.65ZM61.3,90.84,60.13,91c-2.11.25-4.1.48-5.43-.77s-1.17-3.32-1-5.34l0-.45a1.17,1.17,0,0,0-1.61-1.16,20.24,20.24,0,0,1-5.68,1.47,20.3,20.3,0,0,1-5.68-1.47,1.17,1.17,0,0,0-1.61,1.16l0,.44c.14,2,.29,4.1-1,5.34s-3.32,1-5.43.77l-1.17-.13c-2.32-.21-3.24-.81-3.32-1.3C28,88.42,30.15,86.33,31,85.91c2.44-1.12,1.29-5.35.89-6.61-2.18-7.15-.26-17.45,1.61-24.51l0,0A29.16,29.16,0,0,0,45.86,57.5a33.49,33.49,0,0,0,13.35-2.89l0,0c1.9,7.07,3.87,17.45,1.66,24.69-.41,1.27-1.56,5.5.88,6.62.9.41,3,2.5,2.84,3.63C64.54,90,63.62,90.63,61.3,90.84Zm9-2.75c-.14.93-1.35,1.7-3.38,1.56.2-2.65-3.06-5.34-4.17-5.84-.3-.31-.21-2.07.35-3.82a32.9,32.9,0,0,0,.92-11.77c.15.4.3.81.44,1.23a1.36,1.36,0,0,0,.19.71s.06.05.08.08a34.46,34.46,0,0,1,1.42,6,75.85,75.85,0,0,1,0,7.76,1,1,0,0,0-.08.27,1,1,0,0,0,.87,1.2h0C69.4,85.82,70.49,87.06,70.33,88.09Z"/><polygon points="26.96 24.03 33.91 20.15 26.96 13.29 26.96 24.03"/><polygon points="65.87 13.29 58.93 20.15 65.87 24.03 65.87 13.29"/><circle cx="38.6" cy="28.38" r="1.85"/><circle cx="54.23" cy="28.38" r="1.85"/><path d="M42.94,40.26c-.81.27-1.9-.16-3-1.2a1.17,1.17,0,0,0-1.62,1.68,6.1,6.1,0,0,0,4.11,1.93,3.88,3.88,0,0,0,1.23-.2,4.85,4.85,0,0,0,2.74-2.65,4.85,4.85,0,0,0,2.74,2.65,3.88,3.88,0,0,0,1.23.2,6.1,6.1,0,0,0,4.11-1.93,1.17,1.17,0,0,0-1.62-1.68c-1.08,1-2.16,1.48-3,1.2S48.43,39,48,37.44a7.41,7.41,0,0,0,1.05-.32S52.7,32,47.4,32.25h0l-.93,0-.93,0h0c-5.3-.21-1.66,4.87-1.66,4.87a7.4,7.4,0,0,0,1,.32C44.41,39,43.74,40,42.94,40.26Z"/><path d="M55.29,74.87a1,1,0,0,0-1.24.81,9.43,9.43,0,0,1-.32,1.19,6.12,6.12,0,0,1-.52-.72,1,1,0,0,0-1.05-.48,1.09,1.09,0,0,0-.88.79,1.91,1.91,0,0,1-.12.28c-.2-.17-.4-.38-.61-.6A7.53,7.53,0,0,0,49.19,75a1.05,1.05,0,0,0-1.35.19,2.41,2.41,0,0,0-.41.64c-.22-.17-.43-.34-.6-.51a1.05,1.05,0,0,0-1.69.37,10,10,0,0,0-.54,1.91c-1.76-.22-3.48-2.19-4.9-3.81-.42-.49-.82-.94-1.19-1.32A1.05,1.05,0,0,0,37,73.91c.35.35.72.78,1.11,1.23,1.86,2.13,4.41,5,7.58,4.49a1,1,0,0,0,.87-.94c0-.26.06-.53.11-.8a3.2,3.2,0,0,1,.64.67,1.05,1.05,0,0,0,2-.48c0-.08,0-.15,0-.23a4.28,4.28,0,0,0,2.26,1.38,1.08,1.08,0,0,0,.81-.18,1.05,1.05,0,0,0,.23-.23,2.51,2.51,0,0,1,.22.39,1,1,0,0,0,.73.61l.23,0a1.05,1.05,0,0,0,.69-.26,6.42,6.42,0,0,0,1.65-3.49A1.05,1.05,0,0,0,55.29,74.87Z"/><text x="0" y="115" fill="#000000" font-size="5px" font-weight="bold" font-family="'Helvetica Neue', Helvetica, Arial-Unicode, Arial, Sans-serif">Created by Loka Mariella</text><text x="0" y="120" fill="#000000" font-size="5px" font-weight="bold" font-family="'Helvetica Neue', Helvetica, Arial-Unicode, Arial, Sans-serif">from the Noun Project</text></svg>